<svg xmlns="http://www.w3.org/2000/svg" viewBox="0 0 400 300" width="400" height="300">
  <!-- Fallback 2D pour le Cerveau IA (GPU tier 0) — conclusion visuelle -->
  <defs>
    <radialGradient id="bg-glow-20" cx="50%" cy="50%" r="50%">
      <stop offset="0%" stop-color="#1a1030" />
      <stop offset="100%" stop-color="#0a0a1a" />
    </radialGradient>
    <radialGradient id="brain-glow" cx="50%" cy="50%" r="50%">
      <stop offset="0%" stop-color="#7c4dff" stop-opacity="0.3" />
      <stop offset="100%" stop-color="#7c4dff" stop-opacity="0" />
    </radialGradient>
  </defs>
  <!-- Fond -->
  <rect width="400" height="300" fill="url(#bg-glow-20)" />
  <!-- Aura de lueur -->
  <circle cx="200" cy="130" r="100" fill="url(#brain-glow)" />
  <!-- Hémisphère gauche -->
  <ellipse cx="185" cy="130" rx="55" ry="50" fill="#2a1a4a" stroke="#4a2a7a" stroke-width="1.5" />
  <!-- Hémisphère droit -->
  <ellipse cx="215" cy="130" rx="55" ry="50" fill="#2a1a4a" stroke="#4a2a7a" stroke-width="1.5" />
  <!-- Sillon central -->
  <line x1="200" y1="82" x2="200" y2="178" stroke="#3700b3" stroke-width="1.5" opacity="0.5" />
  <!-- Sillons cérébraux -->
  <path d="M160 110 Q185 105 200 115" fill="none" stroke="#4a2a7a" stroke-width="1" opacity="0.6" />
  <path d="M200 115 Q215 108 240 112" fill="none" stroke="#4a2a7a" stroke-width="1" opacity="0.6" />
  <path d="M155 140 Q180 148 200 140" fill="none" stroke="#4a2a7a" stroke-width="1" opacity="0.5" />
  <path d="M200 140 Q220 148 245 142" fill="none" stroke="#4a2a7a" stroke-width="1" opacity="0.5" />
  <!-- Nœuds neuronaux -->
  <circle cx="170" cy="110" r="4" fill="#bb86fc" opacity="0.9" />
  <circle cx="230" cy="115" r="4" fill="#bb86fc" opacity="0.9" />
  <circle cx="185" cy="145" r="3.5" fill="#bb86fc" opacity="0.8" />
  <circle cx="220" cy="140" r="3.5" fill="#bb86fc" opacity="0.8" />
  <circle cx="200" cy="100" r="4" fill="#e0b0ff" opacity="0.9" />
  <circle cx="155" cy="130" r="3" fill="#bb86fc" opacity="0.7" />
  <circle cx="245" cy="125" r="3" fill="#bb86fc" opacity="0.7" />
  <circle cx="195" cy="160" r="3" fill="#bb86fc" opacity="0.7" />
  <!-- Connexions synaptiques -->
  <line x1="170" y1="110" x2="200" y2="100" stroke="#7c4dff" stroke-width="1" opacity="0.5" />
  <line x1="200" y1="100" x2="230" y2="115" stroke="#7c4dff" stroke-width="1" opacity="0.5" />
  <line x1="170" y1="110" x2="185" y2="145" stroke="#7c4dff" stroke-width="1" opacity="0.4" />
  <line x1="230" y1="115" x2="220" y2="140" stroke="#7c4dff" stroke-width="1" opacity="0.4" />
  <line x1="155" y1="130" x2="170" y2="110" stroke="#7c4dff" stroke-width="1" opacity="0.3" />
  <line x1="245" y1="125" x2="230" y2="115" stroke="#7c4dff" stroke-width="1" opacity="0.3" />
  <line x1="185" y1="145" x2="195" y2="160" stroke="#7c4dff" stroke-width="1" opacity="0.3" />
  <!-- Anneaux orbitaux -->
  <ellipse cx="200" cy="130" rx="90" ry="30" fill="none" stroke="#7c4dff" stroke-width="0.8" opacity="0.25" transform="rotate(-15, 200, 130)" />
  <ellipse cx="200" cy="130" rx="100" ry="25" fill="none" stroke="#6200ea" stroke-width="0.6" opacity="0.2" transform="rotate(20, 200, 130)" />
  <!-- Particules flottantes -->
  <circle cx="120" cy="95" r="2" fill="#e0b0ff" opacity="0.6" />
  <circle cx="280" cy="100" r="2" fill="#e0b0ff" opacity="0.5" />
  <circle cx="150" cy="180" r="1.5" fill="#e0b0ff" opacity="0.4" />
  <circle cx="260" cy="170" r="1.5" fill="#e0b0ff" opacity="0.4" />
  <!-- Label -->
  <text x="200" y="230" text-anchor="middle" fill="#e8eaf6" font-family="sans-serif" font-size="14" opacity="0.6">Intelligence Artificielle · 2020</text>
</svg>
